<svg width="500" height="500" viewBox="0 0 500 500" fill="none" xmlns="http://www.w3.org/2000/svg">
<g clip-path="url(#clip0_23_2)">
<path d="M167.86 201.21C178.81 201.21 186.61 209.23 186.61 220.17C186.61 231.11 178.81 239.13 167.86 239.13H157.51V201.2H167.86V201.21ZM167.32 236.53C177.29 236.53 183.68 229.97 183.68 220.17C183.68 210.37 177.29 203.81 167.32 203.81H160.33V236.54H167.32V236.53Z" fill="white"/>
<path d="M195.93 204.24C197.12 204.24 198.1 205.22 198.1 206.41C198.1 207.6 197.12 208.58 195.93 208.58C194.74 208.58 193.76 207.6 193.76 206.41C193.76 205.22 194.74 204.24 195.93 204.24ZM194.52 214.43H197.34V239.14H194.52V214.43Z" fill="white"/>
<path d="M228.82 214.43V239.73C228.82 247.48 223.94 252.25 216.74 252.25C209.54 252.25 205.42 247.21 205.42 247.21L207.32 245.2C207.32 245.2 210.46 249.48 216.75 249.48C223.04 249.48 226.02 245.36 226.02 239.83V235.01C225.21 236.15 222.55 239.78 217.08 239.78C210.25 239.78 204.83 234.47 204.83 226.78C204.83 219.09 210.25 213.78 217.08 213.78C223.91 213.78 226.29 218.98 226.29 218.98V214.43H228.84H228.82ZM226 222.28C226 222.28 223.45 216.54 217.06 216.54C211.53 216.54 207.74 221.04 207.74 226.78C207.74 232.52 211.53 237.02 217.06 237.02C223.45 237.02 226 231.28 226 231.28V222.29V222.28Z" fill="white"/>
<path d="M239.65 204.24C240.84 204.24 241.82 205.22 241.82 206.41C241.82 207.6 240.84 208.58 239.65 208.58C238.46 208.58 237.48 207.6 237.48 206.41C237.48 205.22 238.46 204.24 239.65 204.24ZM238.24 214.43H241.06V239.14H238.24V214.43Z" fill="white"/>
<path d="M248.1 214.43H253.46V206.46H256.28V214.43H264.68V217.03H256.28V231.93C256.28 234.69 257.26 237.02 260.61 237.02C262.56 237.02 264.29 235.88 264.29 235.88L265.37 238.32C265.37 238.32 262.99 239.78 260.49 239.78C255.67 239.78 253.45 236.53 253.45 232.46V217.02H248.09V214.42L248.1 214.43Z" fill="white"/>
<path d="M291.34 222.93V239.13H288.79V234.85C288.79 234.85 285.54 239.78 279.47 239.78C275.3 239.78 270.48 236.91 270.48 231.43C270.48 225.95 275.47 223.09 280.29 223.09C285.11 223.09 288.53 225.42 288.53 225.42V223.58C288.53 217.57 283.98 216.54 281.27 216.54C276.77 216.54 273.2 218.82 273.2 218.82L271.95 216.38C271.95 216.38 276.01 213.78 281.22 213.78C288.1 213.78 291.35 217.9 291.35 222.94L291.34 222.93ZM288.53 232.04V227.87C288.53 227.87 285.6 225.81 280.67 225.81C277.42 225.81 273.41 227.54 273.41 231.44C273.41 235.34 276.93 237.02 280.13 237.02C285.55 237.02 288.53 232.03 288.53 232.03V232.04Z" fill="white"/>
<path d="M300.99 198.17H303.7V239.13H300.88L300.99 198.17Z" fill="white"/>
<path d="M404.27 263.87H390.73V290.44H396.84V269.97H404.27C412.75 269.97 416.62 276.51 416.62 282.58C416.62 288.65 412.76 295.14 404.27 295.14H383.17L376.63 287.34C382.19 286.08 385.74 281.65 385.74 275.88C385.74 270.11 381.88 263.81 373.41 263.81H359.67V301.24H365.72V269.97H373.42C377.7 269.97 379.65 273.04 379.65 275.89C379.65 278.74 377.7 281.86 373.42 281.86H366.84V284.92L380.27 301.09L380.39 301.24H404.27C413.13 301.24 422.67 295.4 422.67 282.58C422.67 269.76 413.13 263.87 404.27 263.87Z" fill="white"/>
<path d="M157.51 264.45H163.81V295.22H179.46V301.21H157.51V264.46V264.45Z" fill="white"/>
<path d="M198.03 264.45H204.44L218.72 301.2H212.37L209.01 292.48H193.47L190.11 301.2H183.76L198.04 264.45H198.03ZM195.72 286.71H206.75L201.24 272.38L195.73 286.71H195.72Z" fill="white"/>
<path d="M228.68 264.45L247.06 289.76V264.45H253.36V301.2H247.69L229.31 275.95V301.2H223.01V264.45H228.68Z" fill="white"/>
<path d="M287.67 282.82C287.67 293.43 280.21 301.2 269.5 301.2H257.63V264.45H269.5C280.21 264.45 287.67 272.22 287.67 282.83V282.82ZM281.27 282.82C281.27 276.1 276.76 270.43 269.61 270.43H263.94V295.21H269.61C276.75 295.21 281.27 289.49 281.27 282.82Z" fill="white"/>
<path d="M291.97 264.49H298.27V295.26H313.92V301.25H291.97V264.5V264.49Z" fill="white"/>
<path d="M355.38 282.82C355.38 293.69 347.5 301.83 336.79 301.83C326.08 301.83 318.2 293.69 318.2 282.82C318.2 271.95 326.08 263.81 336.79 263.81C347.5 263.81 355.38 271.95 355.38 282.82ZM348.97 282.82C348.97 275.73 344.19 269.8 336.79 269.8C329.39 269.8 324.61 275.73 324.61 282.82C324.61 289.91 329.39 295.84 336.79 295.84C344.19 295.84 348.97 289.91 348.97 282.82Z" fill="white"/>
<path d="M440.08 285.87C434.67 283.98 428.58 281.04 428.58 274.21C428.58 269.01 433.2 263.81 440.6 263.81C448 263.81 452.57 269.64 452.57 269.64L448.21 273.95C448.21 273.95 445.17 269.8 440.6 269.8C437.45 269.8 434.98 271.74 434.98 274.21C434.98 277.41 437.87 278.41 442.91 280.3C448.53 282.4 453.2 284.92 453.2 291.59C453.2 298.26 447.32 301.83 440.39 301.83C431.2 301.83 426.95 294.32 426.95 294.32L431.68 290.33C431.68 290.33 434.83 295.84 440.4 295.84C443.55 295.84 446.81 294.58 446.81 291.59C446.81 288.6 444.45 287.39 440.09 285.87H440.08Z" fill="white"/>
<path d="M389.35 295.09H386.8V301.27H389.35V295.09Z" fill="white"/>
<path d="M59.73 245.77C66.8766 245.77 72.67 240.124 72.67 233.16C72.67 226.196 66.8766 220.55 59.73 220.55C52.5834 220.55 46.79 226.196 46.79 233.16C46.79 240.124 52.5834 245.77 59.73 245.77Z" fill="#FAA21A"/>
<path d="M95.42 220.89C98.9822 220.89 101.87 218.074 101.87 214.6C101.87 211.126 98.9822 208.31 95.42 208.31C91.8578 208.31 88.97 211.126 88.97 214.6C88.97 218.074 91.8578 220.89 95.42 220.89Z" fill="#FAA21A"/>
<path d="M71.41 218.09C77.0544 218.09 81.63 213.631 81.63 208.13C81.63 202.629 77.0544 198.17 71.41 198.17C65.7657 198.17 61.19 202.629 61.19 208.13C61.19 213.631 65.7657 218.09 71.41 218.09Z" fill="#FAA21A"/>
<path d="M117.93 223.74C122.149 223.74 125.57 220.405 125.57 216.29C125.57 212.175 122.149 208.84 117.93 208.84C113.711 208.84 110.29 212.175 110.29 216.29C110.29 220.405 113.711 223.74 117.93 223.74Z" fill="#FAA21A"/>
<path d="M116.4 268.25C120.321 268.25 123.5 265.152 123.5 261.33C123.5 257.508 120.321 254.41 116.4 254.41C112.479 254.41 109.3 257.508 109.3 261.33C109.3 265.152 112.479 268.25 116.4 268.25Z" fill="#FAA21A"/>
<path d="M103 281.28C105.69 281.28 107.87 279.153 107.87 276.53C107.87 273.907 105.69 271.78 103 271.78C100.31 271.78 98.13 273.907 98.13 276.53C98.13 279.153 100.31 281.28 103 281.28Z" fill="#FAA21A"/>
<path d="M126.62 252.23C129.31 252.23 131.49 250.103 131.49 247.48C131.49 244.857 129.31 242.73 126.62 242.73C123.93 242.73 121.75 244.857 121.75 247.48C121.75 250.103 123.93 252.23 126.62 252.23Z" fill="#FAA21A"/>
<path d="M99.62 266.43C101.995 266.43 103.92 264.554 103.92 262.24C103.92 259.926 101.995 258.05 99.62 258.05C97.2452 258.05 95.32 259.926 95.32 262.24C95.32 264.554 97.2452 266.43 99.62 266.43Z" fill="#FAA21A"/>
<path d="M121.4 284.14C125.062 284.14 128.03 281.243 128.03 277.67C128.03 274.097 125.062 271.2 121.4 271.2C117.738 271.2 114.77 274.097 114.77 277.67C114.77 281.243 117.738 284.14 121.4 284.14Z" fill="#FAA21A"/>
<path d="M107.31 301.83C112.943 301.83 117.51 297.38 117.51 291.89C117.51 286.4 112.943 281.95 107.31 281.95C101.677 281.95 97.11 286.4 97.11 291.89C97.11 297.38 101.677 301.83 107.31 301.83Z" fill="#FAA21A"/>
<path d="M141.16 247.04C145.451 247.04 148.93 243.651 148.93 239.47C148.93 235.289 145.451 231.9 141.16 231.9C136.869 231.9 133.39 235.289 133.39 239.47C133.39 243.651 136.869 247.04 141.16 247.04Z" fill="#FAA21A"/>
<path d="M69.44 214.43L64.78 230.85" stroke="#FAA21A" stroke-width="0.94" stroke-miterlimit="10"/>
<path d="M77.32 211.63L99.72 215.13" stroke="#FAA21A" stroke-width="0.94" stroke-miterlimit="10"/>
<path d="M64.09 236.97L86.48 240.47" stroke="#FAA21A" stroke-width="0.94" stroke-miterlimit="10"/>
<path d="M94.34 218.45L94.89 223.65" stroke="#FAA21A" stroke-width="0.94" stroke-miterlimit="10"/>
<path d="M111.31 228.57L117.59 215.84" stroke="#FAA21A" stroke-width="0.94" stroke-miterlimit="10"/>
<path d="M120.14 215.83L138.05 239.41" stroke="#FAA21A" stroke-width="0.94" stroke-miterlimit="10"/>
<path d="M138.05 242.2L126.59 247.62" stroke="#FAA21A" stroke-width="0.94" stroke-miterlimit="10"/>
<path d="M124.93 248.25L118.7 260.97" stroke="#FAA21A" stroke-width="0.94" stroke-miterlimit="10"/>
<path d="M112.79 263.52L100.22 263.36" stroke="#FAA21A" stroke-width="0.94" stroke-miterlimit="10"/>
<path d="M100.58 263.78L102.4 273.65" stroke="#FAA21A" stroke-width="0.94" stroke-miterlimit="10"/>
<path d="M105.28 276.61L120.68 276.97" stroke="#FAA21A" stroke-width="0.94" stroke-miterlimit="10"/>
<path d="M120.32 279.59L106.88 290.77" stroke="#FAA21A" stroke-width="0.94" stroke-miterlimit="10"/>
<path fill-rule="evenodd" clip-rule="evenodd" d="M117.96 238.32C116.27 231.07 112.82 226.06 106.63 223.36C105.27 222.77 103.7 222.19 102.08 221.79H94.64C92.54 222.34 90.37 223 88.69 224.02C84.03 226.86 81 230.69 79.35 236.59C78.63 239.14 78.52 243.17 79.27 245.85C79.76 247.6 80.38 249.45 81.25 250.89C82.72 253.3 84.61 255.56 86.87 257.17C87.71 257.77 89.23 258.33 89.93 258.99H90.01V248.57C94.14 244.91 98.28 241.24 102.41 237.58C103.53 237.98 104.68 239.67 105.63 240.39C106.93 241.37 107.99 242.65 109.27 243.61C110.3 244.39 111.28 245.23 112.25 246.09C113.08 246.83 113.88 247.88 114.9 248.4C114.95 248.54 114.92 248.48 114.98 248.57V251.71H115.06C115.48 250.86 116.08 250.03 116.47 249.15C116.66 248.71 116.68 248.24 116.97 247.91C116.77 247.36 116.16 247.08 115.73 246.75C114.89 246.11 114.2 245.25 113.33 244.6C112.59 244.04 112.01 243.18 111.26 242.62C109.77 241.49 108.36 240.22 106.96 238.98C106.69 238.74 106.5 238.37 106.22 238.15C105.48 237.59 104.87 236.88 104.15 236.33C103.63 235.94 103.03 235.55 102.66 235.01C101.65 235.22 99.6 237.72 98.69 238.4C97.43 239.35 96.23 240.41 95.05 241.46C94.78 241.7 94.59 242.07 94.31 242.29C93.08 243.22 91.91 244.24 90.76 245.27C89.76 246.15 88.86 247.1 87.78 247.92C87.47 248.15 87.37 248.52 86.95 248.66V248.74H83.06C83.29 248.1 84.28 247.56 84.8 247.17C85.02 246.92 85.24 246.67 85.46 246.43C86.5 245.64 87.39 244.74 88.44 243.95C88.99 243.53 89.36 242.88 90.01 242.54V237.33C90.01 236.56 89.89 235.47 90.09 234.85C91.23 234.85 92.93 234.61 93.89 234.93V238.98C94.76 238.46 95.34 237.59 96.12 237C96.89 236.42 97.63 235.82 98.35 235.18C98.62 234.94 98.81 234.57 99.09 234.35C99.83 233.79 100.44 233.08 101.16 232.53C101.59 232.21 102.1 231.9 102.4 231.46C102.91 231.64 103.12 232.05 103.47 232.37C103.94 232.79 104.45 233.14 104.96 233.53C105.4 233.97 105.84 234.41 106.28 234.85C108.87 236.8 111.14 239.16 113.55 241.3C114.02 241.72 114.53 242.07 115.04 242.46C115.43 242.85 115.81 243.23 116.2 243.62C116.67 243.97 117.2 244.29 117.52 244.78H117.77C117.91 242.83 118.42 240.42 117.94 238.33L117.96 238.32ZM101.76 248.9H99.78V250.97C100.43 250.97 101.34 251.06 101.85 250.89C101.86 250.4 101.98 249.4 101.77 249.07V248.9H101.76ZM103.16 248.99V250.97H105.23V248.9C104.58 248.9 103.67 248.81 103.16 248.98V248.99ZM99.77 252.37V254.35H101.84C101.84 253.72 101.92 252.85 101.76 252.37H99.78H99.77ZM103.16 254.36H105.23V252.38H103.16V254.36Z" fill="#FAA21A"/>
</g>
<defs>
<clipPath id="clip0_23_2">
<rect width="500" height="500" fill="white"/>
</clipPath>
</defs>
</svg>
